<?xml version="1.0" standalone="no"?>
<!DOCTYPE svg PUBLIC "-//W3C//DTD SVG 20010904//EN"
 "http://www.w3.org/TR/2001/REC-SVG-20010904/DTD/svg10.dtd">
<svg version="1.0" xmlns="http://www.w3.org/2000/svg"
 width="1000.000000pt" height="1000.000000pt" viewBox="0 0 1000.000000 1000.000000"
 preserveAspectRatio="xMidYMid meet">
<metadata>
Created by potrace 1.14, written by Peter Selinger 2001-2017
</metadata>
<g transform="translate(0.000000,1000.000000) scale(0.100000,-0.100000)"
fill="#000000" stroke="none">
<path d="M411 7552 c-19 -9 -43 -29 -54 -44 -19 -26 -20 -50 -20 -1077 0 -959
2 -1053 17 -1076 48 -73 147 -79 211 -11 20 20 20 36 23 811 l2 790 50 -103
c28 -57 50 -105 50 -107 0 -1 29 -63 64 -136 35 -74 73 -155 84 -180 12 -25
47 -100 78 -165 31 -65 71 -150 89 -189 114 -243 159 -333 177 -352 36 -38
121 -47 168 -16 22 15 53 49 56 63 1 7 40 91 123 264 39 82 71 150 71 151 0 2
25 56 56 121 31 66 70 148 86 184 17 36 54 115 83 175 28 61 69 147 90 192 21
46 41 81 43 78 3 -3 5 -347 5 -765 0 -831 -3 -798 57 -842 55 -40 137 -24 178
35 l22 33 0 1045 c0 1002 -1 1045 -19 1075 -25 41 -74 63 -129 59 -75 -6 -85
-20 -198 -252 -57 -118 -104 -217 -104 -218 0 -2 -45 -97 -100 -210 -55 -114
-100 -209 -100 -210 0 -2 -39 -83 -86 -182 -47 -98 -111 -231 -142 -295 -31
-65 -59 -118 -62 -118 -6 0 -35 58 -193 390 -33 69 -81 170 -107 225 -26 55
-69 145 -95 200 -208 437 -288 601 -305 625 -13 18 -35 31 -64 39 -59 14 -65
14 -105 -7z"/>
<path d="M3210 7548 c-292 -58 -475 -253 -546 -583 -14 -67 -17 -145 -18 -484
-2 -429 3 -532 30 -637 49 -198 165 -365 311 -451 159 -93 436 -125 644 -74
306 76 484 297 526 656 9 81 9 833 -1 919 -39 352 -238 591 -544 653 -114 23
-288 23 -402 1z m364 -259 c175 -47 281 -190 311 -419 7 -58 7 -821 0 -880
-18 -136 -65 -249 -134 -318 -86 -86 -190 -123 -349 -123 -256 -2 -409 123
-464 376 -17 76 -18 896 -2 988 36 203 129 322 294 376 89 28 238 28 344 0z"/>
<path d="M4702 7560 c-45 -11 -70 -36 -78 -79 -4 -19 -7 -497 -7 -1061 0 -940
1 -1028 17 -1057 27 -53 62 -69 141 -64 24 1 67 37 84 69 9 17 12 219 12 819
0 502 4 792 10 786 15 -15 329 -525 329 -534 0 -5 5 -9 10 -9 6 0 10 -4 10 -9
0 -12 648 -1062 671 -1087 25 -27 73 -41 128 -38 53 3 92 30 106 71 7 20 10
393 10 1070 0 983 -1 1041 -18 1067 -48 73 -135 82 -197 21 l-35 -35 -5 -811
-5 -810 -40 68 c-21 37 -47 79 -56 93 -10 14 -218 351 -463 750 -280 455 -458
735 -479 752 -36 31 -92 41 -145 28z"/>
<path d="M8205 7559 c-48 -14 -86 -60 -92 -112 -5 -38 3 -64 57 -188 77 -180
325 -682 461 -934 l103 -190 1 -370 c1 -330 3 -373 18 -402 42 -79 157 -91
223 -22 l29 30 5 387 c5 372 6 388 26 422 105 173 428 827 551 1113 62 145 65
178 17 228 -59 62 -164 60 -203 -3 -6 -10 -57 -118 -112 -241 -95 -210 -375
-775 -404 -813 -11 -16 -34 26 -197 351 -101 204 -210 429 -242 500 -92 204
-96 213 -121 229 -31 20 -82 27 -120 15z"/>
<path d="M6713 7520 c-69 -42 -65 26 -65 -1090 -1 -1095 -4 -1040 55 -1084 28
-21 36 -21 606 -21 l577 0 31 25 c73 58 67 169 -11 216 -29 17 -60 19 -506 19
l-475 0 -1 357 -1 357 423 3 424 3 31 32 c63 62 44 175 -34 208 -25 10 -120
13 -422 13 -214 0 -397 1 -406 1 -14 1 -16 38 -17 339 0 185 1 346 3 357 4 20
11 20 447 19 411 0 446 1 480 18 89 44 94 168 9 225 l-34 23 -541 0 c-519 0
-542 -1 -573 -20z"/>
<path d="M735 4572 c-11 -2 -30 -13 -42 -24 -31 -29 -142 -315 -223 -573 -17
-55 -37 -118 -45 -140 -12 -36 -24 -80 -31 -111 -1 -6 -10 -38 -19 -70 -9 -33
-19 -68 -21 -79 -2 -11 -6 -30 -8 -42 -11 -52 77 -93 111 -53 9 11 27 59 40
109 13 49 27 101 32 114 l10 25 206 0 c239 0 209 16 250 -138 33 -127 68 -157
130 -109 24 20 26 26 20 66 -21 138 -216 737 -308 945 -26 59 -63 88 -102 80z
m91 -437 c32 -89 94 -275 94 -280 0 -2 -79 -3 -175 -4 -96 0 -175 1 -175 4 0
2 5 16 11 32 6 15 12 35 14 43 4 20 66 198 112 323 l36 98 24 -58 c13 -32 40
-103 59 -158z"/>
<path d="M3746 4568 c-108 -14 -210 -80 -253 -162 -50 -97 -56 -132 -59 -361
-3 -155 0 -238 10 -280 45 -208 172 -309 381 -301 91 3 171 33 222 81 48 46
54 74 23 105 -25 25 -50 25 -81 1 -104 -81 -259 -85 -340 -9 -62 58 -82 152
-83 383 0 164 7 219 34 283 61 141 228 183 370 92 55 -35 73 -37 100 -10 28
28 25 54 -10 94 -38 43 -109 77 -174 82 -28 3 -58 6 -66 7 -8 2 -41 -1 -74 -5z"/>
<path d="M8335 4563 c-107 -24 -180 -77 -221 -160 -26 -51 -29 -69 -29 -148 0
-102 19 -151 76 -199 46 -39 88 -54 239 -88 190 -42 244 -76 254 -163 12 -95
-42 -172 -141 -201 -70 -20 -225 -15 -297 11 -77 27 -94 27 -116 5 -27 -27
-25 -66 3 -94 46 -46 282 -77 407 -55 115 21 206 83 250 170 40 78 40 225 1
299 -41 75 -102 106 -295 149 -157 35 -209 58 -232 103 -33 64 -10 168 47 210
65 49 163 56 289 23 36 -9 75 -17 88 -17 49 -1 80 63 49 103 -36 47 -257 78
-372 52z"/>
<path d="M2125 4556 c-37 -27 -22 -86 155 -616 158 -474 158 -474 226 -474 48
0 63 19 109 146 46 128 215 628 243 723 55 185 55 184 38 210 -12 18 -25 25
-50 25 -43 0 -59 -20 -81 -100 -28 -104 -226 -704 -236 -715 -5 -5 -9 -19 -9
-32 0 -57 -22 -7 -94 210 -43 127 -80 239 -83 247 -3 8 -7 20 -9 25 -1 6 -14
48 -29 95 -15 47 -37 120 -50 163 -12 42 -28 84 -35 92 -16 19 -70 19 -95 1z"/>
<path d="M3095 4554 c-19 -14 -20 -28 -20 -522 -1 -279 1 -515 3 -525 3 -10
15 -25 28 -34 19 -12 30 -13 58 -3 19 6 37 18 40 26 3 9 6 244 6 523 0 442 -2
509 -16 529 -18 26 -68 29 -99 6z"/>
<path d="M7181 4549 c-19 -20 -19 -36 -17 -417 2 -388 3 -398 25 -457 49 -127
169 -204 324 -210 207 -8 341 85 383 264 9 38 13 160 13 426 0 361 -1 373 -20
394 -29 31 -89 26 -106 -9 -9 -18 -12 -120 -12 -385 0 -198 -3 -374 -6 -390
-21 -90 -79 -152 -160 -172 -92 -23 -214 10 -255 68 -53 73 -53 77 -55 490 -1
306 -4 390 -14 403 -19 23 -76 20 -100 -5z"/>
<path d="M1311 4538 c-21 -21 -21 -30 -21 -519 0 -474 1 -498 19 -520 19 -24
22 -24 198 -23 178 0 241 5 299 22 113 34 188 126 214 262 6 31 9 157 7 290
-2 211 -5 241 -24 293 -40 107 -113 173 -223 202 -34 9 -119 14 -250 15 -193
1 -199 0 -219 -22z m434 -125 c57 -19 111 -74 130 -134 14 -40 16 -88 13 -281
-3 -216 -5 -236 -25 -273 -51 -96 -102 -117 -290 -121 -127 -2 -143 0 -144 14
-4 47 -5 798 -1 805 7 14 271 6 317 -10z"/>
<path d="M4284 4539 c-18 -20 -19 -45 -19 -515 0 -272 3 -503 7 -513 3 -10 19
-23 35 -28 15 -5 148 -9 295 -8 246 0 268 2 287 19 27 25 27 70 0 95 -20 18
-37 20 -247 21 -124 0 -228 3 -232 5 -8 5 -12 284 -5 320 4 20 11 20 192 19
230 -1 252 5 253 68 0 52 -23 58 -246 58 l-201 0 0 175 0 175 224 0 c210 0
224 1 243 20 11 11 20 31 20 45 0 14 -9 34 -20 45 -19 19 -33 20 -293 20 -265
0 -275 -1 -293 -21z"/>
<path d="M5377 4542 c-23 -25 -21 -75 2 -97 17 -15 41 -17 170 -17 l151 -1 0
-459 0 -459 25 -24 c30 -31 59 -32 89 -1 l24 23 0 444 c0 244 1 452 1 461 1
15 17 17 153 16 151 -1 152 -1 174 25 15 17 20 34 17 51 -11 55 -15 56 -419
56 -347 0 -372 -1 -387 -18z"/>
<path d="M6310 4540 c-11 -11 -20 -32 -21 -47 -4 -143 0 -975 5 -991 4 -11 20
-25 36 -32 37 -15 81 4 90 40 3 14 6 112 6 218 l-1 192 25 1 c31 1 139 1 160
0 15 -1 128 -183 224 -363 52 -96 74 -110 126 -83 55 29 37 83 -119 350 l-70
120 42 14 c59 20 140 104 155 161 25 94 18 229 -14 292 -19 38 -70 86 -114
108 -58 30 -144 40 -332 40 -165 0 -179 -1 -198 -20z m460 -136 c54 -32 78
-83 75 -162 -1 -37 -3 -72 -4 -79 -2 -25 -63 -82 -104 -98 -33 -12 -72 -15
-177 -13 l-134 3 -1 188 0 189 155 -4 c135 -3 160 -6 190 -24z"/>
<path d="M8850 4540 c-25 -25 -26 -72 -1 -94 16 -15 41 -17 170 -17 l151 0 1
-347 c0 -191 0 -398 -1 -459 -1 -108 0 -114 24 -138 31 -30 55 -32 90 -4 l26
20 0 463 0 463 151 1 c134 0 154 2 169 19 32 33 34 60 6 88 l-25 25 -371 0
c-357 0 -371 -1 -390 -20z"/>
<path d="M370 2598 c-40 -15 -48 -74 -15 -107 14 -14 468 -16 4623 -17 2737 0
4618 4 4635 9 46 15 50 98 4 113 -28 10 -9220 12 -9247 2z"/>
</g>
</svg>
